<!DOCTYPE svg PUBLIC "-//W3C//DTD SVG 1.1//EN" "http://www.w3.org/Graphics/SVG/1.1/DTD/svg11.dtd">

<!-- Uploaded to: SVG Repo, www.svgrepo.com, Transformed by: SVG Repo Mixer Tools -->
<svg width="100%" height="100%" viewBox="0 0 24 24" xmlns="http://www.w3.org/2000/svg" fill="#155DFC" stroke="#155DFC">

<g id="SVGRepo_bgCarrier" stroke-width="0"/>

<g id="SVGRepo_tracerCarrier" stroke-linecap="round" stroke-linejoin="round"/>

<g id="SVGRepo_iconCarrier">

<path d="M11.709 10l-.286 1H2a1.001 1.001 0 0 1-1-1V7a1.001 1.001 0 0 1 1-1h10.852l-.286 1H2v3zM22 18v3H2v-3h12.117l.166-1H2a1.001 1.001 0 0 0-1 1v3a1.001 1.001 0 0 0 1 1h20a1.001 1.001 0 0 0 1-1v-3a1.001 1.001 0 0 0-1-1h-2.07l-.62 1zM2 14v1h8v-1zm8-11H2v1h8zm7.577 14H16.31l1.16-7h-3.68l2.57-9h6.115l-2.34 6h3.63zm4.394-9h-3.3l2.34-6h-3.897l-2 7h3.535l-.988 5.964z"/>

<path fill="none" d="M0 0h24v24H0z"/>

</g>

</svg>